<svg width="167" height="66" viewBox="0 0 167 66" fill="none" xmlns="http://www.w3.org/2000/svg">
<path d="M17.2908 15.7361C8.28615 15.7361 0.958252 23.4407 0.958252 32.9083C0.958252 42.3759 8.28615 50.0806 17.2908 50.0806C26.2954 50.0806 33.6233 42.3759 33.6233 32.9083C33.6233 23.4407 26.2954 15.7361 17.2908 15.7361ZM26.1712 40.7436C25.6744 41.2006 25.0534 41.6577 24.4324 42.0494C23.8114 42.5065 23.0662 42.833 22.321 43.2247C21.5758 43.5512 20.7063 43.8124 19.8369 44.0082C18.9675 44.2041 18.036 44.3347 17.0424 44.3347C15.6141 44.3347 14.3099 44.1388 13.2542 43.8124C12.1985 43.4859 11.3291 43.0288 10.646 42.3759C9.96287 41.7883 9.46607 41.07 9.15556 40.2212C8.84506 39.3724 8.65876 38.5236 8.65876 37.5442C8.65876 36.173 8.96926 35.063 9.52817 34.1489C10.0871 33.2348 10.8944 32.4513 11.8259 31.7984C11.3291 31.276 10.9565 30.6231 10.646 29.8395C10.3355 29.1213 10.1492 28.3378 10.1492 27.4237C10.1492 26.5096 10.3355 25.5954 10.646 24.8119C10.9565 24.0284 11.4533 23.3102 12.0122 22.7225C12.6332 22.1349 13.3163 21.6778 14.1236 21.3514C14.9309 21.0249 15.8004 20.8943 16.7319 20.8943C17.7876 20.8943 18.7191 21.0902 19.5264 21.4166C20.3958 21.7431 21.0789 22.2002 21.7 22.7878C22.321 23.3754 22.7557 24.0937 23.0662 24.8772C23.3767 25.6607 23.563 26.5749 23.563 27.5543C23.563 28.6643 23.2525 29.6437 22.6936 30.4925C22.1347 31.3413 21.4515 32.0595 20.6442 32.7124L23.5009 35.2589C23.7493 34.9977 23.9977 34.7366 24.2461 34.4101C24.4945 34.1489 24.805 33.7571 25.1776 33.2348L29.4005 37.0218C28.9658 37.6748 28.469 38.3277 27.91 38.9153C27.3511 39.6336 26.7922 40.2212 26.1712 40.7436ZM24.5566 37.6748C24.184 38.0665 23.7493 38.393 23.3767 38.7195C22.6315 39.2418 21.6999 39.7642 20.6442 40.2212C19.5885 40.6783 18.3465 40.8741 16.9182 40.8741C16.4214 40.8741 15.9246 40.8089 15.3657 40.6783C14.8688 40.5477 14.372 40.3518 13.9373 40.0906C13.5026 39.8294 13.13 39.4377 12.8816 38.9807C12.5711 38.5236 12.4469 37.9359 12.4469 37.283C12.4469 36.3036 12.6953 35.5854 13.2542 34.9977C13.751 34.4101 14.4962 33.8877 15.4899 33.3654L16.4214 32.843L21.3895 37.1524L22.0105 36.6954L17.1666 32.4513C18.3465 31.7984 19.278 31.0801 19.9611 30.2966C20.6442 29.513 21.0168 28.5989 21.0168 27.4889C21.0168 26.9013 20.8926 26.379 20.7063 25.9219C20.4579 25.4649 20.2095 25.0078 19.7748 24.6813C19.4022 24.3549 18.9675 24.0937 18.4086 23.8978C17.9118 23.7019 17.3529 23.6366 16.7319 23.6366C16.2351 23.6366 15.7383 23.7019 15.2415 23.8978C14.7447 24.0937 14.3099 24.3549 13.9373 24.6813C13.5647 25.0078 13.2542 25.4649 13.0058 25.9219C12.7574 26.379 12.6953 26.9666 12.6953 27.5543C12.6953 28.4031 12.8816 29.1213 13.3163 29.7089C13.751 30.3619 14.3099 30.9495 15.0552 31.6024L15.8625 32.3207L15.1173 32.7124C14.6825 32.9736 14.1857 33.2348 13.8131 33.496C13.3784 33.8224 13.0679 34.1489 12.7574 34.4754C12.4469 34.8671 12.1985 35.2589 12.0743 35.716C11.888 36.173 11.8259 36.6954 11.8259 37.2177C11.8259 37.9359 11.9501 38.5889 12.2606 39.1765C12.5711 39.7642 12.9437 40.1559 13.4405 40.5477C13.9373 40.8741 14.4962 41.2006 15.1173 41.3312C15.7383 41.5271 16.4214 41.5924 17.1045 41.5924C18.5328 41.5924 19.8369 41.3312 21.0168 40.8741C22.1347 40.4171 23.1283 39.8295 23.9356 39.2418C24.8671 38.5236 25.6744 37.74 26.4196 36.8259L25.7986 36.3689C25.3018 36.8913 24.9292 37.283 24.5566 37.6748ZM15.4899 31.0801C14.6205 30.3619 14.1236 29.709 13.8131 29.1866C13.5647 28.6643 13.4405 28.1419 13.4405 27.6195C13.4405 26.7054 13.751 25.9219 14.31 25.3343C14.931 24.7466 15.6762 24.4201 16.6077 24.4201C17.0424 24.4201 17.4771 24.4855 17.8497 24.616C18.2844 24.7466 18.5949 24.9425 18.9675 25.2037C19.278 25.4648 19.5264 25.7913 19.7127 26.1831C19.899 26.5748 20.0232 27.0319 20.0232 27.5543C20.0232 28.599 19.7127 29.4478 19.0917 30.1007C18.4707 30.7536 17.6013 31.3413 16.4214 31.9942L15.4899 31.0801ZM17.6634 28.4031C17.8497 28.1419 17.9739 27.8154 17.9739 27.4237C17.9739 26.5749 17.6013 26.1831 16.794 26.1831C16.4214 26.1831 16.173 26.3137 15.9246 26.5095C15.6762 26.7707 15.6141 27.0319 15.6141 27.4237C15.6141 27.7501 15.6762 28.0113 15.8004 28.3378C15.9246 28.5989 16.2351 28.9254 16.6077 29.3172C17.1045 28.9907 17.415 28.6642 17.6634 28.4031ZM15.1794 37.1524C15.1794 37.6748 15.3657 38.0665 15.8004 38.3277C16.173 38.5889 16.6698 38.7195 17.1666 38.7195C17.4771 38.7195 17.7876 38.7195 18.1602 38.6542C18.4707 38.5889 18.7812 38.5236 19.0917 38.393L16.0488 35.6507C15.4278 36.0424 15.1794 36.5648 15.1794 37.1524Z" fill="#72908B"/>
<path d="M17.9736 0H16.6074V17.3028H17.9736V0Z" fill="#72908B"/>
<path d="M17.9736 46.6853H16.6074V65.8816H17.9736V46.6853Z" fill="#72908B"/>
<path d="M59.0221 29.934C56.5958 29.934 54.4006 29.4026 52.4364 28.3396C50.4953 27.2535 48.9702 25.7746 47.861 23.9029C46.7519 22.008 46.1973 19.8821 46.1973 17.5251C46.1973 15.1681 46.7519 13.0538 47.861 11.182C48.9702 9.28718 50.5069 7.80827 52.471 6.74531C54.4352 5.65925 56.6305 5.11621 59.0568 5.11621C60.9516 5.11621 62.6847 5.43972 64.256 6.08674C65.8274 6.71065 67.1676 7.64652 68.2768 8.89434L66.0238 11.078C64.1983 9.16008 61.9222 8.20111 59.1954 8.20111C57.393 8.20111 55.7639 8.60549 54.3081 9.41427C52.8523 10.223 51.7085 11.3438 50.8766 12.7765C50.0678 14.186 49.6634 15.7689 49.6634 17.5251C49.6634 19.2813 50.0678 20.8758 50.8766 22.3084C51.7085 23.718 52.8523 24.8272 54.3081 25.636C55.7639 26.4448 57.393 26.8491 59.1954 26.8491C61.899 26.8491 64.1752 25.8786 66.0238 23.9375L68.2768 26.1212C67.1676 27.3691 65.8158 28.3165 64.2214 28.9635C62.6501 29.6105 60.917 29.934 59.0221 29.934Z" fill="#72908B"/>
<path d="M74.8853 14.3709C75.463 13.3079 76.318 12.4992 77.4503 11.9446C78.5826 11.39 79.9575 11.1127 81.575 11.1127V14.3362C81.3902 14.3131 81.136 14.3016 80.8125 14.3016C79.01 14.3016 77.5889 14.8446 76.5491 15.9307C75.5323 16.9936 75.0239 18.5188 75.0239 20.506V29.6567H71.6964V11.286H74.8853V14.3709Z" fill="#72908B"/>
<path d="M101.07 20.5754C101.07 20.8295 101.047 21.1646 101.001 21.5806H86.0962C86.3042 23.1981 87.009 24.5037 88.2106 25.4973C89.4353 26.4679 90.9489 26.9531 92.7513 26.9531C94.9465 26.9531 96.7143 26.2137 98.0545 24.7348L99.8916 26.8838C99.0597 27.8543 98.0199 28.5938 96.772 29.1022C95.5473 29.6105 94.1724 29.8647 92.6473 29.8647C90.7062 29.8647 88.9847 29.4719 87.4827 28.6862C85.9807 27.8774 84.8137 26.7567 83.9818 25.324C83.1731 23.8913 82.7687 22.2738 82.7687 20.4714C82.7687 18.6921 83.1615 17.0861 83.9472 15.6534C84.756 14.2207 85.8536 13.1115 87.24 12.3259C88.6496 11.5171 90.2325 11.1127 91.9887 11.1127C93.7449 11.1127 95.3047 11.5171 96.668 12.3259C98.0545 13.1115 99.129 14.2207 99.8916 15.6534C100.677 17.0861 101.07 18.7267 101.07 20.5754ZM91.9887 13.9203C90.3943 13.9203 89.054 14.4056 87.9679 15.3761C86.905 16.3466 86.2811 17.6176 86.0962 19.1889H97.8812C97.6963 17.6407 97.0609 16.3813 95.9748 15.4108C94.9119 14.4171 93.5832 13.9203 91.9887 13.9203Z" fill="#72908B"/>
<path d="M110.833 11.1127C113.375 11.1127 115.316 11.7366 116.656 12.9844C118.019 14.2323 118.701 16.0924 118.701 18.565V29.6567H115.547V27.2304C114.992 28.0854 114.195 28.744 113.155 29.2061C112.138 29.6452 110.925 29.8647 109.516 29.8647C107.459 29.8647 105.807 29.3679 104.559 28.3743C103.334 27.3806 102.722 26.075 102.722 24.4575C102.722 22.8399 103.311 21.5459 104.49 20.5754C105.668 19.5817 107.54 19.0849 110.105 19.0849H115.373V18.4263C115.373 16.9936 114.958 15.896 114.126 15.1335C113.294 14.3709 112.069 13.9896 110.452 13.9896C109.365 13.9896 108.302 14.1745 107.263 14.5442C106.223 14.8908 105.345 15.3645 104.628 15.9653L103.242 13.4697C104.189 12.7071 105.322 12.1294 106.639 11.7366C107.956 11.3207 109.354 11.1127 110.833 11.1127ZM110.07 27.2997C111.341 27.2997 112.439 27.0224 113.363 26.4679C114.287 25.8902 114.958 25.0814 115.373 24.0415V21.4766H110.244C107.424 21.4766 106.015 22.424 106.015 24.3188C106.015 25.2431 106.373 25.971 107.089 26.5025C107.806 27.034 108.799 27.2997 110.07 27.2997Z" fill="#72908B"/>
<path d="M134.148 28.5822C133.663 28.9982 133.062 29.3217 132.346 29.5528C131.629 29.7607 130.89 29.8647 130.127 29.8647C128.279 29.8647 126.846 29.3679 125.829 28.3743C124.813 27.3806 124.304 25.9595 124.304 24.1109V14.0243H121.185V11.286H124.304V7.26524H127.632V11.286H132.9V14.0243H127.632V23.9722C127.632 24.9659 127.874 25.7284 128.36 26.2599C128.868 26.7914 129.584 27.0571 130.509 27.0571C131.526 27.0571 132.392 26.7683 133.108 26.1906L134.148 28.5822Z" fill="#72908B"/>
<path d="M153.125 20.5754C153.125 20.8295 153.102 21.1646 153.056 21.5806H138.151C138.359 23.1981 139.064 24.5037 140.266 25.4973C141.49 26.4679 143.004 26.9531 144.806 26.9531C147.001 26.9531 148.769 26.2137 150.109 24.7348L151.947 26.8838C151.115 27.8543 150.075 28.5938 148.827 29.1022C147.602 29.6105 146.227 29.8647 144.702 29.8647C142.761 29.8647 141.04 29.4719 139.538 28.6862C138.036 27.8774 136.869 26.7567 136.037 25.324C135.228 23.8913 134.824 22.2738 134.824 20.4714C134.824 18.6921 135.216 17.0861 136.002 15.6534C136.811 14.2207 137.909 13.1115 139.295 12.3259C140.705 11.5171 142.287 11.1127 144.044 11.1127C145.8 11.1127 147.36 11.5171 148.723 12.3259C150.109 13.1115 151.184 14.2207 151.947 15.6534C152.732 17.0861 153.125 18.7267 153.125 20.5754ZM144.044 13.9203C142.449 13.9203 141.109 14.4056 140.023 15.3761C138.96 16.3466 138.336 17.6176 138.151 19.1889H149.936C149.751 17.6407 149.116 16.3813 148.03 15.4108C146.967 14.4171 145.638 13.9203 144.044 13.9203Z" fill="#72908B"/>
<path d="M159.895 14.3709C160.472 13.3079 161.327 12.4992 162.46 11.9446C163.592 11.39 164.967 11.1127 166.584 11.1127V14.3362C166.399 14.3131 166.145 14.3016 165.822 14.3016C164.019 14.3016 162.598 14.8446 161.558 15.9307C160.542 16.9936 160.033 18.5188 160.033 20.506V29.6567H156.706V11.286H159.895V14.3709Z" fill="#72908B"/>
<path d="M51.6392 41.0902V49.5476H63.8054V52.5286H51.6392V62.3378H48.173V38.0746H65.2959V41.0902H51.6392Z" fill="#72908B"/>
<path d="M74.6966 43.7938C77.2384 43.7938 79.1795 44.4177 80.5197 45.6655C81.8831 46.9134 82.5648 48.7735 82.5648 51.2461V62.3378H79.4105V59.9115C78.856 60.7665 78.0587 61.4251 77.0189 61.8872C76.0021 62.3263 74.789 62.5458 73.3794 62.5458C71.3228 62.5458 69.6706 62.049 68.4228 61.0554C67.1981 60.0617 66.5857 58.7561 66.5857 57.1386C66.5857 55.521 67.1749 54.227 68.3534 53.2565C69.5319 52.2628 71.4037 51.766 73.9687 51.766H79.2372V51.1074C79.2372 49.6747 78.8213 48.5771 77.9894 47.8146C77.1575 47.052 75.9328 46.6707 74.3153 46.6707C73.2292 46.6707 72.1662 46.8556 71.1264 47.2253C70.0865 47.5719 69.2084 48.0456 68.4921 48.6464L67.1056 46.1508C68.053 45.3882 69.1853 44.8105 70.5025 44.4177C71.8196 44.0018 73.2176 43.7938 74.6966 43.7938ZM73.934 59.9808C75.2049 59.9808 76.3025 59.7035 77.2269 59.149C78.1512 58.5713 78.8213 57.7625 79.2372 56.7226V54.1577H74.1073C71.2881 54.1577 69.8786 55.1051 69.8786 56.9999C69.8786 57.9242 70.2367 58.6521 70.9531 59.1836C71.6694 59.7151 72.6631 59.9808 73.934 59.9808Z" fill="#72908B"/>
<path d="M103.601 43.9671L95.5591 62.3378H92.1623L84.1208 43.9671H87.5869L93.8954 58.6984L100.342 43.9671H103.601Z" fill="#72908B"/>
</svg>
