<svg width="182" height="49" viewBox="0 0 182 49" fill="none" xmlns="http://www.w3.org/2000/svg">
<path d="M23.6352 27.8904C23.4632 30.2686 22.5828 32.1407 20.9939 33.5069C19.4152 34.8731 17.3306 35.5562 14.7399 35.5562C11.9063 35.5562 9.67488 34.6049 8.04558 32.7024C6.4264 30.7897 5.61681 28.1687 5.61681 24.8393V23.4883C5.61681 21.3631 5.99125 19.4909 6.74012 17.8717C7.48899 16.2526 8.55663 15.0129 9.94305 14.1527C11.3396 13.2824 12.9588 12.8472 14.8006 12.8472C17.3508 12.8472 19.4051 13.5303 20.9636 14.8965C22.522 16.2627 23.4227 18.1804 23.6656 20.6496H19.1116C19.0003 19.2227 18.6006 18.1905 17.9124 17.553C17.2344 16.9053 16.1971 16.5814 14.8006 16.5814C13.2826 16.5814 12.1441 17.1279 11.3851 18.2209C10.6363 19.3037 10.2517 20.9886 10.2315 23.2757V24.9455C10.2315 27.3338 10.5907 29.0795 11.3092 30.1825C12.0379 31.2856 13.1814 31.8371 14.7399 31.8371C16.1465 31.8371 17.1939 31.5184 17.8821 30.8808C18.5804 30.2331 18.9801 29.2363 19.0813 27.8904H23.6352Z" fill="#72908B"/>
<path d="M46.1408 25.6741H37.3972V31.5943H47.6588V35.2526H32.8433V13.1508H47.6284V16.8395H37.3972V22.1069H46.1408V25.6741Z" fill="#72908B"/>
<path d="M69.0258 30.6987H61.0413L59.5233 35.2526H54.6809L62.9084 13.1508H67.1284L75.4014 35.2526H70.559L69.0258 30.6987ZM62.2708 27.01H67.7963L65.0184 18.737L62.2708 27.01Z" fill="#72908B"/>
<path d="M98.4989 16.8395H91.7287V35.2526H87.1748V16.8395H80.4957V13.1508H98.4989V16.8395Z" fill="#72908B"/>
<path d="M125.316 35.2526H120.762V25.7804H111.881V35.2526H107.327V13.1508H111.881V22.1069H120.762V13.1508H125.316V35.2526Z" fill="#72908B"/>
<path d="M148.823 25.6741H140.079V31.5943H150.341V35.2526H135.525V13.1508H150.311V16.8395H140.079V22.1069H148.823V25.6741Z" fill="#72908B"/>
<path d="M170.691 29.4539C170.691 28.5937 170.387 27.9359 169.78 27.4805C169.173 27.015 168.08 26.5293 166.501 26.0233C164.923 25.5072 163.673 25.0012 162.752 24.5053C160.242 23.1492 158.987 21.3226 158.987 19.0254C158.987 17.8313 159.321 16.7687 159.989 15.8376C160.667 14.8965 161.634 14.1628 162.889 13.6366C164.154 13.1103 165.57 12.8472 167.139 12.8472C168.718 12.8472 170.124 13.1356 171.359 13.7125C172.594 14.2792 173.55 15.0837 174.228 16.1261C174.916 17.1684 175.26 18.3524 175.26 19.6781H170.706C170.706 18.6661 170.387 17.8819 169.75 17.3253C169.112 16.7585 168.217 16.4752 167.063 16.4752C165.95 16.4752 165.085 16.713 164.467 17.1886C163.85 17.6542 163.541 18.2715 163.541 19.0406C163.541 19.7591 163.901 20.3612 164.619 20.847C165.348 21.3327 166.415 21.7881 167.822 22.2132C170.413 22.9924 172.3 23.9588 173.484 25.1125C174.668 26.2662 175.26 27.7032 175.26 29.4236C175.26 31.3362 174.537 32.839 173.089 33.932C171.642 35.0148 169.694 35.5562 167.245 35.5562C165.545 35.5562 163.997 35.2475 162.6 34.6302C161.204 34.0028 160.136 33.1477 159.397 32.0648C158.669 30.982 158.304 29.7271 158.304 28.3002H162.873C162.873 30.7391 164.331 31.9586 167.245 31.9586C168.328 31.9586 169.173 31.741 169.78 31.3058C170.387 30.8606 170.691 30.2433 170.691 29.4539Z" fill="#72908B"/>
<path d="M0.980469 0.833496H181.958V3.05408H0.980469V0.833496Z" fill="#72908B"/>
<path d="M0.980469 46.3555H181.958V48.5761H0.980469V46.3555Z" fill="#72908B"/>
</svg>
