<svg width="184" height="41" viewBox="0 0 184 41" fill="none" xmlns="http://www.w3.org/2000/svg">
<rect x="90.6555" y="0.619385" width="93.2647" height="39.9706" rx="1" fill="#72908B"/>
<path d="M0.721924 9.84771H5.06743L9.68454 23.3954C11.1104 18.9032 14.5733 9.13468 15.8633 6.71036C17.8324 2.93128 21.2952 1.22 25.5728 1.86173L25.0975 6.13994C22.4495 5.71212 20.6162 6.56775 19.5299 8.84946C17.3571 12.9138 11.9252 30.6683 11.8573 30.8109L11.5857 31.0248L8.05498 31.0961L0.721924 9.84771Z" fill="#72908B"/>
<path d="M28.0172 13.2701H25.3013V9.41968H35.0108V13.2701H32.0911V26.6751H28.0172V13.2701ZM25.3013 27.3168H35.0108V31.1672H25.3013V27.3168Z" fill="#72908B"/>
<path d="M43.2957 9.84741H47.5054L54.0237 22.3968V9.84741H58.0976V31.0245L57.826 31.1671H53.8879L47.3696 18.5464V31.1671H43.2957V9.84741Z" fill="#72908B"/>
<path d="M165.827 26.898V23.6181H171.938V19.3398H159.309V23.6181H161.685V31.1762H174.993V26.898H165.827Z" fill="#F8F6F1"/>
<path d="M165.827 13.7794H174.382V9.50122H161.685V18.5568H165.827V13.7794Z" fill="#F8F6F1"/>
<path d="M103.496 14.1349H97.3174V9.7854H113.749V14.1349H107.57V31.1765H103.428V14.1349H103.496Z" fill="#F8F6F1"/>
<path d="M78.9427 18.4033H63.1902V22.5389H78.9427V18.4033Z" fill="#72908B"/>
<path d="M146.204 21.1951V25.0455H150.821C149.734 26.1864 148.376 26.8994 146.747 26.8994C143.42 26.8994 140.704 24.0473 140.704 20.5534C140.704 17.0596 143.42 14.2074 146.747 14.2074C149.055 14.2074 151.16 15.5622 152.179 17.7726L155.777 15.7048C154.012 12.1396 150.549 9.9292 146.747 9.9292C141.111 9.9292 136.63 14.7065 136.63 20.5534C136.63 26.4003 141.179 31.2489 146.747 31.2489C150.617 31.2489 154.216 29.1811 155.845 25.1168V21.2665H146.204V21.1951Z" fill="#F8F6F1"/>
<path d="M126.853 10.0713L123.051 10.1426C123.051 10.1426 118.23 25.9007 115.854 31.3197H118.23H120.335H129.773H131.063H132.489H134.118L126.853 10.0713ZM121.761 27.4693C123.051 23.9755 124.341 20.1251 125.088 17.7721L128.415 27.4693H121.761Z" fill="#F8F6F1"/>
</svg>
