<svg width="147" height="44" viewBox="0 0 147 44" fill="none" xmlns="http://www.w3.org/2000/svg">
<path d="M2 0.357422L2 43.6589" stroke="#72908B" stroke-width="3"/>
<path d="M21.3229 16.1622H26.503V18.122H18.8833V6.28174H21.3229V16.1622Z" fill="#72908B"/>
<path d="M41.4188 15.6824H37.1413L36.3281 18.122H33.734L38.1416 6.28174H40.4023L44.8342 18.122H42.2401L41.4188 15.6824ZM37.8 13.7063H40.7601L39.2719 9.27433L37.8 13.7063Z" fill="#72908B"/>
<path d="M56.3427 15.1863L59.0263 6.28174H61.7424L57.6194 18.122H55.0741L50.9674 6.28174H53.6754L56.3427 15.1863Z" fill="#72908B"/>
<path d="M76.65 12.9907H71.9659V16.1622H77.4632V18.122H69.5263V6.28174H77.4469V8.25782H71.9659V11.0796H76.65V12.9907Z" fill="#72908B"/>
<path d="M95.1845 18.122H92.7449L87.9958 10.3315V18.122H85.5562V6.28174H87.9958L92.753 14.0885V6.28174H95.1845V18.122Z" fill="#72908B"/>
<path d="M103.977 18.122V6.28174H107.62C108.661 6.28174 109.591 6.51757 110.409 6.98923C111.233 7.45546 111.876 8.12229 112.337 8.9897C112.797 9.8517 113.028 10.833 113.028 11.9335V12.4783C113.028 13.5789 112.8 14.5574 112.345 15.414C111.895 16.2706 111.258 16.9347 110.434 17.4064C109.61 17.878 108.68 18.1166 107.644 18.122H103.977ZM106.416 8.25782V16.1622H107.596C108.55 16.1622 109.279 15.8504 109.783 15.227C110.287 14.6035 110.545 13.7117 110.556 12.5515V11.9254C110.556 10.7218 110.306 9.81104 109.808 9.19301C109.309 8.56955 108.58 8.25782 107.62 8.25782H106.416Z" fill="#72908B"/>
<path d="M128.594 12.9907H123.91V16.1622H129.407V18.122H121.471V6.28174H129.391V8.25782H123.91V11.0796H128.594V12.9907Z" fill="#72908B"/>
<path d="M141.884 13.7876H139.94V18.122H137.5V6.28174H141.9C143.299 6.28174 144.377 6.59347 145.136 7.21692C145.895 7.84038 146.275 8.72135 146.275 9.85983C146.275 10.6676 146.099 11.3426 145.746 11.8847C145.399 12.4214 144.871 12.8497 144.16 13.1696L146.722 18.0081V18.122H144.104L141.884 13.7876ZM139.94 11.8115H141.908C142.521 11.8115 142.995 11.657 143.331 11.348C143.667 11.0336 143.835 10.6026 143.835 10.055C143.835 9.4966 143.675 9.05747 143.355 8.73761C143.041 8.41775 142.556 8.25782 141.9 8.25782H139.94V11.8115Z" fill="#72908B"/>
<path d="M25.5678 36.7779H21.2904L20.4772 39.2176H17.8831L22.2906 27.3773H24.5513L28.9833 39.2176H26.3892L25.5678 36.7779ZM21.9491 34.8019H24.9091L23.421 30.3699L21.9491 34.8019Z" fill="#72908B"/>
<path d="M45.9402 37.7213C45.5011 38.2471 44.8803 38.6564 44.078 38.9492C43.2756 39.2365 42.3865 39.3802 41.4107 39.3802C40.386 39.3802 39.4861 39.1579 38.7108 38.7134C37.941 38.2634 37.3446 37.6128 36.9218 36.7617C36.5043 35.9105 36.2902 34.9103 36.2793 33.761V32.9559C36.2793 31.774 36.4772 30.7521 36.873 29.8901C37.2742 29.0227 37.8488 28.3613 38.597 27.9059C39.3505 27.4451 40.2315 27.2147 41.2399 27.2147C42.644 27.2147 43.7418 27.5508 44.5333 28.223C45.3249 28.8899 45.7938 29.863 45.9402 31.1424H43.5656C43.4572 30.4648 43.216 29.9687 42.8419 29.6543C42.4732 29.3398 41.9636 29.1826 41.3131 29.1826C40.4836 29.1826 39.852 29.4944 39.4183 30.1178C38.9846 30.7413 38.765 31.6683 38.7596 32.899V33.6552C38.7596 34.8967 38.9954 35.8346 39.4671 36.4689C39.9388 37.1032 40.63 37.4204 41.5408 37.4204C42.457 37.4204 43.1102 37.2252 43.5006 36.8349V34.7937H41.2805V32.9965H45.9402V37.7213Z" fill="#72908B"/>
<path d="M61.7098 34.0862H57.0258V37.2577H62.523V39.2176H54.5862V27.3773H62.5068V29.3534H57.0258V32.1752H61.7098V34.0862Z" fill="#72908B"/>
<path d="M80.2444 39.2176H77.8047L73.0556 31.4271V39.2176H70.616V27.3773H73.0556L77.8129 35.1841V27.3773H80.2444V39.2176Z" fill="#72908B"/>
<path d="M98.3316 35.2735C98.2395 36.5475 97.7678 37.5505 96.9166 38.2824C96.0709 39.0143 94.9541 39.3802 93.5662 39.3802C92.0483 39.3802 90.8529 38.8706 89.98 37.8514C89.1126 36.8267 88.6789 35.4226 88.6789 33.639V32.9152C88.6789 31.7767 88.8795 30.7738 89.2807 29.9064C89.6818 29.039 90.2538 28.3748 90.9965 27.914C91.7447 27.4478 92.6121 27.2147 93.5988 27.2147C94.965 27.2147 96.0655 27.5806 96.9004 28.3125C97.7353 29.0444 98.2178 30.0717 98.3479 31.3945H95.9083C95.8486 30.6301 95.6345 30.0771 95.2658 29.7356C94.9026 29.3886 94.3469 29.2152 93.5988 29.2152C92.7856 29.2152 92.1757 29.5079 91.7691 30.0934C91.3679 30.6735 91.1619 31.5762 91.151 32.8014V33.6959C91.151 34.9753 91.3435 35.9105 91.7284 36.5015C92.1187 37.0924 92.7314 37.3878 93.5662 37.3878C94.3198 37.3878 94.8809 37.2171 95.2496 36.8755C95.6236 36.5286 95.8378 35.9946 95.892 35.2735H98.3316Z" fill="#72908B"/>
<path d="M110.678 32.7119L113.142 27.3773H115.809L111.922 34.9238V39.2176H109.442V34.9238L105.554 27.3773H108.23L110.678 32.7119Z" fill="#72908B"/>
</svg>
