<svg width="136" height="33" viewBox="0 0 136 33" fill="none" xmlns="http://www.w3.org/2000/svg">
<path d="M24.5777 1.81177H19.1974L12.7094 18.6509L6.22136 1.81177H0.920166L12.7094 32.3838L24.5777 1.81177Z" fill="#72908B"/>
<path d="M36.5257 1.81177H31.541V32.3838H36.5257V1.81177Z" fill="#72908B"/>
<path d="M54.4071 24.5364C60.4204 24.5364 65.4051 19.4683 65.4051 13.1741C65.4051 6.96159 60.4995 1.81177 54.4071 1.81177C48.3147 1.81177 43.4092 6.96159 43.4092 13.1741C43.4092 19.4683 48.3939 24.5364 54.4071 24.5364ZM54.4071 6.87985C57.8094 6.87985 60.4995 9.65912 60.4995 13.1741C60.4995 16.6891 57.8094 19.4683 54.4071 19.4683C51.0049 19.4683 48.3147 16.6891 48.3147 13.1741C48.3147 9.65912 51.0049 6.87985 54.4071 6.87985Z" fill="#72908B"/>
<path d="M64.0593 27.3154H44.5161V32.3835H64.0593V27.3154Z" fill="#72908B"/>
<path d="M88.1916 27.3157H77.2728V1.81177H72.3672V32.3838H88.1916V27.3157Z" fill="#72908B"/>
<path d="M115.25 27.3157H100.455V19.6318H112.719V14.5637H100.455V6.96159H115.25V1.81177H95.47V32.3838H115.25V27.3157Z" fill="#72908B"/>
<path d="M126.169 32.3838H131.075V6.96159H135.98V1.81177H121.185V6.96159H126.169V32.3838Z" fill="#72908B"/>
<path d="M54.4068 25.8442C61.1322 25.8442 66.5917 20.2039 66.5917 13.2557C66.5917 6.30753 61.1322 0.667236 54.4068 0.667236C47.6815 0.667236 42.222 6.30753 42.222 13.2557C42.1429 20.2039 47.6815 25.8442 54.4068 25.8442ZM54.4068 1.32119C60.8157 1.32119 65.9587 6.63451 65.9587 13.2557C65.9587 19.7952 60.8157 25.1902 54.4068 25.1902C47.9979 25.1902 42.855 19.8769 42.855 13.2557C42.855 6.63451 47.9979 1.32119 54.4068 1.32119Z" fill="#72908B"/>
</svg>
